<svg width="28" height="28" viewBox="0 0 28 28" fill="none" xmlns="http://www.w3.org/2000/svg">
  <path d="M28 14C28 6.26801 21.732 0 14 0C6.26801 0 0 6.26801 0 14C0 21.732 6.26801 28 14 28C21.732 28 28 21.732 28 14Z" fill="#248D74"/>
  <path d="M14 6C12.4178 6 10.871 6.46919 9.55544 7.34824C8.23985 8.22729 7.21447 9.47672 6.60897 10.9385C6.00347 12.4003 5.84504 14.0089 6.15372 15.5607C6.4624 17.1126 7.22433 18.538 8.34315 19.6569C9.46197 20.7757 10.8874 21.5376 12.4393 21.8463C13.9911 22.155 15.5997 21.9965 17.0615 21.391C18.5233 20.7855 19.7727 19.7602 20.6518 18.4446C21.5308 17.129 22 15.5823 22 14C22 11.8783 21.1571 9.84344 19.6569 8.34315C18.1566 6.84285 16.1217 6 14 6ZM19 14.5C19 14.6326 18.9473 14.7598 18.8536 14.8536C18.7598 14.9473 18.6326 15 18.5 15H15V18.5C15 18.6326 14.9473 18.7598 14.8536 18.8536C14.7598 18.9473 14.6326 19 14.5 19H13.5C13.3674 19 13.2402 18.9473 13.1465 18.8536C13.0527 18.7598 13 18.6326 13 18.5V15H9.5C9.3674 15 9.24022 14.9473 9.14645 14.8536C9.05268 14.7598 9 14.6326 9 14.5V13.5C9 13.3674 9.05268 13.2402 9.14645 13.1464C9.24022 13.0527 9.3674 13 9.5 13H13V9.5C13 9.36739 13.0527 9.24021 13.1465 9.14645C13.2402 9.05268 13.3674 9 13.5 9H14.5C14.6326 9 14.7598 9.05268 14.8536 9.14645C14.9473 9.24021 15 9.36739 15 9.5V13H18.5C18.6326 13 18.7598 13.0527 18.8536 13.1464C18.9473 13.2402 19 13.3674 19 13.5V14.5Z" fill="white"/>
  </svg>
  