<svg width="18" height="18" viewBox="0 0 18 18" fill="none" xmlns="http://www.w3.org/2000/svg">
  <path d="M4 7.0096C3.99965 6.8118 4.05796 6.61834 4.16757 6.45368C4.27718 6.28903 4.43315 6.16058 4.61577 6.08458C4.79839 6.00857 4.99944 5.98844 5.1935 6.02671C5.38756 6.06499 5.56592 6.15996 5.706 6.2996L8.995 9.5896L12.284 6.2996C12.4716 6.1269 12.718 6.03235 12.973 6.0353C13.2279 6.03825 13.4721 6.13847 13.6556 6.31547C13.8391 6.49247 13.9481 6.73288 13.9602 6.98756C13.9724 7.24223 13.8868 7.49193 13.721 7.6856L13.697 7.7106L9.697 11.7026C9.50951 11.8898 9.25542 11.9949 8.9905 11.9949C8.72558 11.9949 8.47149 11.8898 8.284 11.7026L4.293 7.7156C4.1057 7.52836 4.00032 7.27445 4 7.0096Z" fill="#248D74"/>
  </svg>
  