<svg width="18" height="18" viewBox="0 0 18 18" fill="none" xmlns="http://www.w3.org/2000/svg">
  <path d="M9 1C7.41775 1 5.87103 1.46919 4.55544 2.34824C3.23985 3.22729 2.21447 4.47672 1.60897 5.93853C1.00347 7.40034 0.84504 9.00887 1.15372 10.5607C1.4624 12.1126 2.22433 13.538 3.34315 14.6569C4.46197 15.7757 5.88743 16.5376 7.43928 16.8463C8.99113 17.155 10.5997 16.9965 12.0615 16.391C13.5233 15.7855 14.7727 14.7602 15.6518 13.4446C16.5308 12.129 17 10.5823 17 9C17 6.87827 16.1571 4.84344 14.6569 3.34315C13.1566 1.84285 11.1217 1 9 1ZM9.024 14.438C8.66755 14.4534 8.31959 14.3265 8.05666 14.0854C7.79374 13.8442 7.63739 13.5085 7.622 13.152C7.60662 12.7955 7.73347 12.4476 7.97464 12.1847C8.21581 11.9217 8.55155 11.7654 8.908 11.75C8.94667 11.75 8.98534 11.75 9.024 11.75C9.19589 11.7378 9.36849 11.7595 9.53194 11.8141C9.69539 11.8687 9.84647 11.955 9.97651 12.068C10.1066 12.1811 10.213 12.3187 10.2898 12.4729C10.3666 12.6272 10.4122 12.7951 10.424 12.967C10.424 13.0063 10.424 13.0457 10.424 13.085C10.4335 13.2693 10.4035 13.4534 10.3358 13.6251C10.2682 13.7967 10.1646 13.9519 10.0319 14.0801C9.89922 14.2083 9.74062 14.3066 9.56676 14.3683C9.39289 14.4301 9.20782 14.4538 9.024 14.438ZM10.807 8.029L10.707 8.129C10.313 8.544 9.865 9.013 9.865 9.304C9.86656 9.54034 9.92852 9.77236 10.045 9.978L10.117 10.117L10.06 10.332C10.0365 10.3877 9.99717 10.4354 9.94687 10.469C9.89656 10.5026 9.8375 10.5207 9.777 10.521H8.436C8.37671 10.5248 8.31727 10.5164 8.26136 10.4962C8.20546 10.4761 8.15428 10.4447 8.111 10.404C7.83397 10.0419 7.68517 9.59793 7.688 9.142C7.72751 8.74035 7.8461 8.35049 8.03695 7.99488C8.2278 7.63927 8.48713 7.32494 8.8 7.07C8.9 6.961 8.995 6.86 9.088 6.77C9.402 6.444 9.595 6.234 9.595 6.012C9.595 5.858 9.595 5.39 8.702 5.39C8.14254 5.39055 7.59469 5.54971 7.122 5.849C7.07249 5.87895 7.01537 5.89395 6.95753 5.89217C6.89968 5.8904 6.84359 5.87193 6.796 5.839L6.677 5.754L6.649 5.53V4.08C6.64169 3.99991 6.65646 3.91934 6.69172 3.84706C6.72698 3.77477 6.78138 3.71354 6.849 3.67C7.50252 3.29415 8.24629 3.10397 9 3.12C9.35867 3.09154 9.7193 3.13929 10.0582 3.26013C10.3971 3.38098 10.7066 3.57216 10.9663 3.82113C11.226 4.0701 11.4301 4.37122 11.5652 4.70469C11.7003 5.03817 11.7633 5.39645 11.75 5.756C11.7589 6.17917 11.6801 6.59961 11.5185 6.99081C11.3569 7.38201 11.116 7.7355 10.811 8.029H10.807Z" fill="#207f68"/>
  </svg>
  