<svg width="28" height="28" viewBox="0 0 28 28" fill="none" xmlns="http://www.w3.org/2000/svg">
  <path d="M28 14C28 6.26801 21.732 0 14 0C6.26801 0 0 6.26801 0 14C0 21.732 6.26801 28 14 28C21.732 28 28 21.732 28 14Z" fill="black" fill-opacity="0.08"/>
  <path d="M21.25 8H17.5V7C17.5 6.73478 17.3946 6.48043 17.2071 6.29289C17.0196 6.10536 16.7652 6 16.5 6H11.5C11.2348 6 10.9804 6.10536 10.7929 6.29289C10.6054 6.48043 10.5 6.73478 10.5 7V8H6.75C6.6837 8 6.62011 8.02634 6.57322 8.07322C6.52634 8.12011 6.5 8.1837 6.5 8.25V8.75C6.5 8.8163 6.52634 8.87989 6.57322 8.92678C6.62011 8.97366 6.6837 9 6.75 9H7.75L8.957 21.55C8.96944 21.6738 9.02756 21.7884 9.12001 21.8717C9.21247 21.9549 9.33262 22.0006 9.457 22H18.546C18.6704 22.0006 18.7905 21.9549 18.883 21.8717C18.9754 21.7884 19.0336 21.6738 19.046 21.55L20.25 9H21.25C21.3163 9 21.3799 8.97366 21.4268 8.92678C21.4737 8.87989 21.5 8.8163 21.5 8.75V8.25C21.5 8.1837 21.4737 8.12011 21.4268 8.07322C21.3799 8.02634 21.3163 8 21.25 8ZM11.032 19.5C10.8998 19.5088 10.7695 19.4647 10.6698 19.3776C10.5701 19.2904 10.509 19.1672 10.5 19.035L9.964 11.035C9.95512 10.9024 9.99927 10.7717 10.0868 10.6716C10.1742 10.5716 10.2979 10.5104 10.4305 10.5015C10.5631 10.4926 10.6938 10.5368 10.7939 10.6243C10.8939 10.7117 10.9551 10.8354 10.964 10.968L11.499 18.968C11.5035 19.0335 11.495 19.0993 11.4741 19.1616C11.4531 19.2238 11.4201 19.2813 11.3769 19.3308C11.3338 19.3803 11.2812 19.4208 11.2224 19.45C11.1636 19.4792 11.0995 19.4966 11.034 19.501L11.032 19.5ZM14.5 19C14.5 19.1326 14.4473 19.2598 14.3536 19.3536C14.2598 19.4473 14.1326 19.5 14 19.5C13.8674 19.5 13.7402 19.4473 13.6464 19.3536C13.5527 19.2598 13.5 19.1326 13.5 19V11C13.5 10.8674 13.5527 10.7402 13.6464 10.6464C13.7402 10.5527 13.8674 10.5 14 10.5C14.1326 10.5 14.2598 10.5527 14.3536 10.6464C14.4473 10.7402 14.5 10.8674 14.5 11V19ZM16.5 8H11.5V7H16.5V8ZM17.5 19.034C17.4911 19.1666 17.4299 19.2903 17.3299 19.3777C17.2298 19.4652 17.0991 19.5094 16.9665 19.5005C16.8339 19.4916 16.7102 19.4304 16.6228 19.3304C16.5353 19.2303 16.4911 19.0996 16.5 18.967L17.035 10.967C17.0439 10.8344 17.1051 10.7107 17.2051 10.6233C17.3052 10.5358 17.4359 10.4916 17.5685 10.5005C17.7011 10.5094 17.8248 10.5706 17.9122 10.6706C17.9997 10.7707 18.0439 10.9014 18.035 11.034L17.5 19.034Z" fill="#464646"/>
  </svg>
  