<svg width="18" height="19" viewBox="0 0 18 19" fill="none" xmlns="http://www.w3.org/2000/svg">
  <path d="M8.1014 16.7768C7.7922 17.0893 7.42401 17.3373 7.0182 17.5064C6.61239 17.6755 6.17703 17.7623 5.7374 17.7618H5.6884C4.77933 17.744 3.91315 17.3719 3.2744 16.7248C2.95383 16.4174 2.69695 16.0498 2.51843 15.6431C2.33991 15.2364 2.24325 14.7985 2.23397 14.3545C2.22468 13.9104 2.30295 13.4689 2.46431 13.0551C2.62567 12.6413 2.86696 12.2633 3.1744 11.9428L3.2224 11.8938L12.1134 2.99878C12.5274 2.56846 13.085 2.30513 13.6804 2.25878C13.9598 2.23131 14.2417 2.26741 14.5051 2.36439C14.7685 2.46138 15.0066 2.61672 15.2014 2.81878C15.4109 3.01077 15.5712 3.25041 15.6685 3.51743C15.7658 3.78446 15.7973 4.07099 15.7604 4.35278C15.6536 4.92116 15.3775 5.444 14.9684 5.85278L9.0384 11.7728C8.6564 12.1548 8.2974 12.4308 7.8884 12.0228C7.4794 11.6148 7.8004 11.2378 8.1514 10.8878L12.9884 6.05778C13.056 5.99035 13.0945 5.89917 13.0959 5.80371C13.0972 5.70824 13.0611 5.61604 12.9954 5.54678L12.6584 5.18778C12.6254 5.15263 12.5858 5.12434 12.5418 5.10451C12.4979 5.08468 12.4504 5.07371 12.4022 5.07223C12.354 5.07074 12.306 5.07877 12.2609 5.09585C12.2158 5.11293 12.1745 5.13873 12.1394 5.17178L12.1304 5.17978L7.1514 10.1708C6.95423 10.3386 6.79524 10.5467 6.6851 10.7811C6.57495 11.0155 6.51621 11.2707 6.5128 11.5296C6.50939 11.7885 6.5614 12.0452 6.66533 12.2824C6.76926 12.5196 6.92272 12.7318 7.1154 12.9048C8.4464 14.2348 9.9574 12.6048 9.9574 12.6048L15.8514 6.73178C16.1939 6.43971 16.4731 6.08064 16.6717 5.67667C16.8703 5.2727 16.9842 4.83237 17.0063 4.38276C17.0284 3.93315 16.9583 3.48377 16.8002 3.06227C16.6422 2.64076 16.3996 2.25605 16.0874 1.93178C15.7895 1.62801 15.4326 1.3885 15.0385 1.22803C14.6445 1.06756 14.2218 0.989543 13.7964 0.998781C13.3163 1.00591 12.8424 1.10801 12.402 1.29921C11.9616 1.49041 11.5634 1.76692 11.2304 2.11278L2.3814 10.9488C1.94344 11.3867 1.59604 11.9067 1.35901 12.4789C1.12199 13.0511 1 13.6644 1 14.2838C1 14.9031 1.12199 15.5164 1.35901 16.0887C1.59604 16.6609 1.94344 17.1808 2.3814 17.6188C2.81936 18.0567 3.33929 18.4041 3.91151 18.6412C4.48373 18.8782 5.09704 19.0002 5.7164 19.0002C6.33577 19.0002 6.94907 18.8782 7.52129 18.6412C8.09351 18.4041 8.61344 18.0567 9.0514 17.6188L16.7514 9.91878C16.8202 9.84996 16.8589 9.75661 16.8589 9.65928C16.8589 9.56195 16.8202 9.46861 16.7514 9.39978L16.3764 9.02478C16.3076 8.95596 16.2142 8.9173 16.1169 8.9173C16.0196 8.9173 15.9262 8.95596 15.8574 9.02478L8.1014 16.7768Z" fill="black" fill-opacity="0.9"/>
  </svg>